<svg width="152" height="152" viewBox="0 0 152 152" fill="none" xmlns="http://www.w3.org/2000/svg">
<circle cx="76" cy="76" r="76" fill="#C4C4C4"/>
<path d="M55.2188 103.344H57.4062V105.531H55.2188V103.344Z" fill="#FDFDFD"/>
<path d="M59.5938 103.344H61.7812V105.531H59.5938V103.344Z" fill="#FDFDFD"/>
<path d="M63.9688 103.344H66.1562V105.531H63.9688V103.344Z" fill="#FDFDFD"/>
<path d="M55.2188 98.9688H66.1562V101.156H55.2188V98.9688Z" fill="#FDFDFD"/>
<path d="M60.5552 69.758C61.0539 70.2567 61.7167 70.5312 62.4222 70.5312C63.878 70.5312 65.0625 69.3467 65.0625 67.8909V63.9688H67.25C70.2655 63.9688 72.7188 61.5155 72.7188 58.5V47.5625C72.7188 44.547 70.2655 42.0938 67.25 42.0938H47.5625C44.547 42.0938 42.0938 44.547 42.0938 47.5625V58.5C42.0938 61.5155 44.547 63.9688 47.5625 63.9688H54.7659L60.5552 69.758ZM44.2812 58.5V47.5625C44.2812 45.7534 45.7534 44.2812 47.5625 44.2812H67.25C69.0591 44.2812 70.5312 45.7534 70.5312 47.5625V58.5C70.5312 60.3091 69.0591 61.7812 67.25 61.7812H62.875V67.8909C62.875 68.2606 62.362 68.4717 62.1017 68.2114L55.6716 61.7812H47.5625C45.7534 61.7812 44.2812 60.3091 44.2812 58.5Z" fill="#FDFDFD"/>
<path d="M65.383 45.6955L53.0313 58.0472L50.5233 55.5392L48.9767 57.0858L53.0313 61.1403L66.9296 47.2421L65.383 45.6955Z" fill="#FDFDFD"/>
<path d="M94.5938 98.9688H96.7812V101.156H94.5938V98.9688Z" fill="#FDFDFD"/>
<path d="M94.5938 94.5938H96.7812V96.7812H94.5938V94.5938Z" fill="#FDFDFD"/>
<path d="M94.5938 103.344H96.7812V105.531H94.5938V103.344Z" fill="#FDFDFD"/>
<path d="M92.4062 55.2188C88.1844 55.2188 84.75 58.6531 84.75 62.875C84.75 67.0969 88.1844 70.5312 92.4062 70.5312C96.6281 70.5312 100.062 67.0969 100.062 62.875C100.062 58.6531 96.6281 55.2188 92.4062 55.2188ZM92.4062 68.3438C89.3908 68.3438 86.9375 65.8905 86.9375 62.875C86.9375 59.8595 89.3908 57.4062 92.4062 57.4062C95.4217 57.4062 97.875 59.8595 97.875 62.875C97.875 65.8905 95.4217 68.3438 92.4062 68.3438Z" fill="#FDFDFD"/>
<path d="M103.547 79.5262C104.845 75.7736 105.531 71.8055 105.531 67.8384C105.531 60.1702 102.998 52.5708 98.3978 46.437L96.7812 44.2812C95.7542 42.9119 94.118 42.0938 92.4062 42.0938C90.6945 42.0938 89.0583 42.9119 88.0312 44.2812L86.4147 46.4359C81.8144 52.5697 79.2812 60.1702 79.2812 67.8384C79.2812 69.467 79.3983 71.1022 79.6214 72.7188H54.125C52.3159 72.7188 50.8438 74.1909 50.8438 76V106.625C50.8438 108.434 52.3159 109.906 54.125 109.906H97.875C99.6841 109.906 101.156 108.434 101.156 106.625V90.2188H101.592C103.952 90.2188 106.239 90.9111 108.205 92.2225L109.906 93.3556V91.3125C109.906 86.5547 107.491 82.1184 103.547 79.5262ZM88.1647 47.7484L89.7812 45.5937C90.3981 44.7723 91.3792 44.2812 92.4062 44.2812C93.4333 44.2812 94.4155 44.7723 95.0312 45.5937L96.6478 47.7484C97.3894 48.7372 98.0522 49.7795 98.6767 50.8438H86.1358C86.7603 49.7806 87.4231 48.7383 88.1647 47.7484ZM81.4688 67.8384C81.4688 62.7087 82.697 57.6217 84.9534 53.0312H99.858C102.115 57.6206 103.344 62.7087 103.344 67.8384C103.344 71.8798 102.587 75.9223 101.156 79.7056V76C101.156 74.1909 99.6841 72.7188 97.875 72.7188H81.8341C81.5956 71.1033 81.4688 69.467 81.4688 67.8384ZM77.0938 77.0938V79.2812H74.9062V77.0938H72.7188V79.2812H70.5312V74.9062H81.4688V79.2812H79.2812V77.0938H77.0938ZM74.9062 105.531V103.344H77.0938V105.531H79.2812V103.344H81.4688V107.719H70.5312V103.344H72.7188V105.531H74.9062ZM98.9688 106.625C98.9688 107.229 98.4777 107.719 97.875 107.719H83.6562V101.156H68.3438V107.719H54.125C53.5223 107.719 53.0312 107.229 53.0312 106.625V76C53.0312 75.3973 53.5223 74.9062 54.125 74.9062H68.3438V81.4688H83.6562V74.9062H97.875C98.4777 74.9062 98.9688 75.3973 98.9688 76V106.625ZM101.592 88.0312H101.156V85.0081L101.765 83.7897C102.119 83.0831 102.441 82.3623 102.747 81.6328C105.308 83.4725 107.038 86.2583 107.556 89.3525C105.696 88.4841 103.669 88.0312 101.592 88.0312Z" fill="#FDFDFD"/>
</svg>
