<svg width="152" height="152" viewBox="0 0 152 152" fill="none" xmlns="http://www.w3.org/2000/svg">
<circle cx="76" cy="76" r="76" fill="#C4C4C4"/>
<g clip-path="url(#clip0)">
<path d="M65.9279 69.4438C63.6512 69.4438 61.7989 71.3201 61.7989 73.6264C61.7989 75.9327 63.6512 77.8091 65.9279 77.8091C68.2046 77.8091 70.0569 75.9327 70.0569 73.6264C70.0569 71.3201 68.2046 69.4438 65.9279 69.4438ZM65.9279 75.7581C64.7675 75.7581 63.8235 74.8019 63.8235 73.6264C63.8235 72.4509 64.7675 71.4947 65.9279 71.4947C67.0882 71.4947 68.0323 72.4509 68.0323 73.6264C68.0323 74.8018 67.0882 75.7581 65.9279 75.7581Z" fill="white"/>
<path d="M76.6927 69.4438C74.416 69.4438 72.5636 71.3201 72.5636 73.6264C72.5636 75.9327 74.416 77.8091 76.6927 77.8091C78.9695 77.8091 80.8218 75.9327 80.8218 73.6264C80.8218 71.3201 78.9695 69.4438 76.6927 69.4438ZM76.6927 75.7581C75.5322 75.7581 74.5882 74.8019 74.5882 73.6264C74.5882 72.4509 75.5323 71.4947 76.6927 71.4947C77.8532 71.4947 78.7971 72.4509 78.7971 73.6264C78.7971 74.8019 77.853 75.7581 76.6927 75.7581Z" fill="white"/>
<path d="M87.4574 69.4438C85.1806 69.4438 83.3284 71.3201 83.3284 73.6264C83.3284 75.9327 85.1806 77.8091 87.4574 77.8091C89.7341 77.8091 91.5864 75.9327 91.5864 73.6264C91.5864 71.3201 89.734 69.4438 87.4574 69.4438ZM87.4574 75.7581C86.297 75.7581 85.353 74.8019 85.353 73.6264C85.353 72.4509 86.2971 71.4947 87.4574 71.4947C88.6177 71.4947 89.5618 72.4509 89.5618 73.6264C89.5618 74.8019 88.6177 75.7581 87.4574 75.7581Z" fill="white"/>
<path d="M65.9279 79.6464C63.6512 79.6464 61.7989 81.5228 61.7989 83.8291C61.7989 86.1354 63.6512 88.0117 65.9279 88.0117C68.2046 88.0117 70.0569 86.1354 70.0569 83.8291C70.0569 81.5228 68.2046 79.6464 65.9279 79.6464ZM65.9279 85.9608C64.7675 85.9608 63.8235 85.0046 63.8235 83.8291C63.8235 82.6536 64.7675 81.6973 65.9279 81.6973C67.0882 81.6973 68.0323 82.6536 68.0323 83.8291C68.0323 85.0046 67.0882 85.9608 65.9279 85.9608Z" fill="white"/>
<path d="M87.4574 79.6464C85.1806 79.6464 83.3284 81.5228 83.3284 83.8291C83.3284 86.1354 85.1806 88.0117 87.4574 88.0117C89.7341 88.0117 91.5864 86.1354 91.5864 83.8291C91.5863 81.5228 89.734 79.6464 87.4574 79.6464ZM87.4574 85.9608C86.297 85.9608 85.353 85.0046 85.353 83.8291C85.353 82.6536 86.2971 81.6973 87.4574 81.6973C88.6177 81.6973 89.5618 82.6536 89.5618 83.8291C89.5617 85.0046 88.6177 85.9608 87.4574 85.9608Z" fill="white"/>
<path d="M76.6927 79.6464C74.416 79.6464 72.5636 81.5228 72.5636 83.8291C72.5636 86.1354 74.416 88.0117 76.6927 88.0117C78.9695 88.0117 80.8218 86.1354 80.8218 83.8291C80.8218 81.5228 78.9695 79.6464 76.6927 79.6464ZM76.6927 85.9608C75.5322 85.9608 74.5882 85.0046 74.5882 83.8291C74.5882 82.6536 75.5323 81.6973 76.6927 81.6973C77.8532 81.6973 78.7971 82.6536 78.7971 83.8291C78.7971 85.0046 77.853 85.9608 76.6927 85.9608Z" fill="white"/>
<path d="M76.6927 89.8491C74.4159 89.8491 72.5637 91.7256 72.5637 94.0319C72.5637 96.3382 74.4159 98.2145 76.6927 98.2145C78.9694 98.2145 80.8217 96.3382 80.8217 94.0319C80.8217 91.7256 78.9694 89.8491 76.6927 89.8491ZM76.6927 96.1635C75.5321 96.1635 74.5881 95.2073 74.5881 94.0318C74.5883 92.8564 75.5322 91.8999 76.6927 91.8999C77.8531 91.8999 78.7971 92.8561 78.7971 94.0318C78.7971 95.2073 77.853 96.1635 76.6927 96.1635Z" fill="white"/>
<path d="M65.9279 89.8491C63.6512 89.8491 61.7989 91.7256 61.7989 94.0319C61.7989 96.3382 63.6512 98.2145 65.9279 98.2145C68.2046 98.2145 70.0569 96.3382 70.0569 94.0319C70.0569 91.7256 68.2046 89.8491 65.9279 89.8491ZM65.9279 96.1635C64.7675 96.1635 63.8235 95.2073 63.8235 94.0318C63.8235 92.8562 64.7675 91.8999 65.9279 91.8999C67.0882 91.8999 68.0323 92.8561 68.0323 94.0318C68.0322 95.2073 67.0882 96.1635 65.9279 96.1635Z" fill="white"/>
<path d="M56.5951 73.6266L58.0832 72.1191C58.4785 71.7186 58.4785 71.0695 58.0831 70.6689C57.6879 70.2686 57.047 70.2685 56.6515 70.6691L55.1635 72.1764L53.6755 70.6691C53.2802 70.2686 52.6392 70.2685 52.2439 70.6689C51.8485 71.0695 51.8485 71.7186 52.2438 72.1191L53.7319 73.6266L52.2438 75.134C51.8482 75.5343 51.8482 76.1835 52.2437 76.5842C52.4412 76.7843 52.7004 76.8844 52.9594 76.8844C53.2184 76.8844 53.4775 76.7843 53.6752 76.584L55.1632 75.0767L56.6512 76.584C56.849 76.7843 57.108 76.8844 57.3671 76.8844C57.6261 76.8844 57.8852 76.7843 58.0828 76.5842C58.4783 76.1836 58.4783 75.5345 58.083 75.134L56.5951 73.6266Z" fill="white"/>
<path d="M56.5951 83.8292L58.0832 82.3217C58.4785 81.9213 58.4785 81.2721 58.0831 80.8716C57.6879 80.4712 57.047 80.4711 56.6515 80.8717L55.1635 82.379L53.6755 80.8717C53.2802 80.4711 52.6392 80.4712 52.2439 80.8716C51.8485 81.2721 51.8485 81.9213 52.2438 82.3217L53.7319 83.8292L52.2438 85.3367C51.8482 85.737 51.8482 86.3861 52.2437 86.7868C52.4412 86.987 52.7004 87.0871 52.9594 87.0871C53.2184 87.0871 53.4775 86.987 53.6752 86.7867L55.1632 85.2794L56.6512 86.7867C56.849 86.987 57.108 87.0871 57.3671 87.0871C57.6261 87.0871 57.8852 86.987 58.0828 86.7868C58.4783 86.3862 58.4783 85.7371 58.083 85.3367L56.5951 83.8292Z" fill="white"/>
<path d="M58.083 95.5389L56.595 94.0316L58.083 92.5242C58.478 92.1238 58.478 91.4746 58.0827 91.0739C57.6872 90.6736 57.0464 90.6736 56.651 91.0739L55.163 92.5812L53.675 91.0739C53.2795 90.6736 52.6387 90.6736 52.2433 91.0739C51.8479 91.4745 51.8479 92.1236 52.2433 92.5242L53.7313 94.0316L52.2433 95.5389C51.8479 95.9395 51.8479 96.5886 52.2433 96.9892C52.441 97.1894 52.7001 97.2894 52.9591 97.2894C53.2181 97.2894 53.4773 97.1894 53.675 96.9892L55.163 95.4819L56.651 96.9892C56.8487 97.1894 57.1078 97.2894 57.3668 97.2894C57.6258 97.2894 57.885 97.1894 58.0827 96.9892C58.4783 96.5885 58.4783 95.9393 58.083 95.5389Z" fill="white"/>
<path d="M110.044 98.5896L107.284 83.8726C107.179 83.3162 106.648 82.9509 106.1 83.0566C105.551 83.1623 105.19 83.6991 105.295 84.2556L108.055 98.9727C108.21 99.7965 107.523 100.574 106.588 100.574H91.608L101.324 90.7317C101.502 90.5517 101.621 90.2886 101.621 90.0066V64.6705L104.397 79.4701C104.501 80.0264 105.031 80.3918 105.58 80.286C106.129 80.1803 106.49 79.6436 106.386 79.087L101.614 53.6495C101.545 52.1362 100.312 50.9257 98.8016 50.9257H89.9303V47.6284C89.9303 47.062 89.4772 46.603 88.918 46.603C88.3589 46.603 87.9058 47.062 87.9058 47.6284V50.9255H81.1265V47.6284C81.1265 47.062 80.6734 46.603 80.1142 46.603C79.555 46.603 79.102 47.062 79.102 47.6284V50.9255H72.3225V47.6284C72.3225 47.062 71.8694 46.603 71.3102 46.603C70.7511 46.603 70.298 47.062 70.298 47.6284V50.9255H63.5187V47.6284C63.5187 47.062 63.0656 46.603 62.5064 46.603C61.9473 46.603 61.4942 47.062 61.4942 47.6284V50.9255H54.7148V47.6284C54.7148 47.062 54.2618 46.603 53.7026 46.603C53.1434 46.603 52.6903 47.062 52.6903 47.6284V50.9255H43.819C42.2646 50.9257 41 52.2066 41 53.7813V102.542C41 104.116 42.2646 105.397 43.819 105.397H68.9483C69.5075 105.397 69.9606 104.938 69.9606 104.372C69.9606 103.805 69.5075 103.346 68.9483 103.346H43.819C43.3811 103.346 43.0246 102.985 43.0246 102.542V64.2396H99.5961V88.9808H88.2339C86.6795 88.9808 85.415 90.2618 85.415 91.8364V103.346H73.6723C73.1131 103.346 72.66 103.805 72.66 104.371C72.66 104.938 73.1131 105.397 73.6723 105.397H86.4272C86.6884 105.397 86.9502 105.292 87.1431 105.097L89.5833 102.625H106.588C108.787 102.625 110.438 100.686 110.044 98.5896ZM43.0246 62.1887V53.7813C43.0246 53.3377 43.3811 52.9766 43.819 52.9766H52.6903V57.5826C52.6903 58.1491 53.1434 58.608 53.7026 58.608C54.2618 58.608 54.7148 58.1491 54.7148 57.5826V52.9766H61.4942V57.5826C61.4942 58.1491 61.9473 58.608 62.5064 58.608C63.0656 58.608 63.5187 58.1491 63.5187 57.5826V52.9766H70.298V57.5826C70.298 58.1491 70.7511 58.608 71.3102 58.608C71.8694 58.608 72.3225 58.1491 72.3225 57.5826V52.9766H79.102V57.5826C79.102 58.1491 79.555 58.608 80.1142 58.608C80.6734 58.608 81.1265 58.1491 81.1265 57.5826V52.9766H87.9058V57.5826C87.9058 58.1491 88.3589 58.608 88.918 58.608C89.4772 58.608 89.9303 58.1491 89.9303 57.5826V52.9766H98.8016C99.2396 52.9766 99.596 53.3377 99.596 53.7813V62.1888H43.0246V62.1887ZM87.4395 101.896V91.8366C87.4395 91.3929 87.7958 91.0318 88.2338 91.0318H98.1643C97.1514 92.058 88.4546 100.868 87.4395 101.896Z" fill="white"/>
</g>
<defs>
<clipPath id="clip0">
<rect width="69.1026" height="70" fill="white" transform="translate(41 41)"/>
</clipPath>
</defs>
</svg>
