<svg width="152" height="152" viewBox="0 0 152 152" fill="none" xmlns="http://www.w3.org/2000/svg">
<circle cx="76" cy="76" r="76" fill="#C4C4C4"/>
<path d="M106.625 51.9375H103.344V49.75C103.344 48.5436 102.363 47.5625 101.156 47.5625H98.9688C97.7623 47.5625 96.7812 48.5436 96.7812 49.75V51.9375H92.4062V49.75C92.4062 48.5436 91.4252 47.5625 90.2188 47.5625H88.0312C86.8248 47.5625 85.8438 48.5436 85.8438 49.75V51.9375H66.1562V49.75C66.1562 48.5436 65.1752 47.5625 63.9688 47.5625H61.7812C60.5748 47.5625 59.5938 48.5436 59.5938 49.75V51.9375H55.2188V49.75C55.2188 48.5436 54.2377 47.5625 53.0312 47.5625H50.8438C49.6373 47.5625 48.6562 48.5436 48.6562 49.75V51.9375H45.375C43.5659 51.9375 42.0938 53.4097 42.0938 55.2188V101.156C42.0938 102.965 43.5659 104.438 45.375 104.438H106.625C108.434 104.438 109.906 102.965 109.906 101.156V55.2188C109.906 53.4097 108.434 51.9375 106.625 51.9375ZM98.9688 49.75H101.156L101.158 56.3125H98.9688V49.75ZM88.0312 49.75H90.2188L90.2209 56.3125H88.0312V49.75ZM61.7812 49.75H63.9688L63.9709 56.3125H61.7812V49.75ZM50.8438 49.75H53.0312L53.0334 56.3125H50.8438V49.75ZM45.375 54.125H48.6562V56.3125C48.6562 57.5189 49.6373 58.5 50.8438 58.5H53.0312C54.2377 58.5 55.2188 57.5189 55.2188 56.3125V54.125H59.5938V56.3125C59.5938 57.5189 60.5748 58.5 61.7812 58.5H63.9688C65.1752 58.5 66.1562 57.5189 66.1562 56.3125V54.125H85.8438V56.3125C85.8438 57.5189 86.8248 58.5 88.0312 58.5H90.2188C91.4252 58.5 92.4062 57.5189 92.4062 56.3125V54.125H96.7812V56.3125C96.7812 57.5189 97.7623 58.5 98.9688 58.5H101.156C102.363 58.5 103.344 57.5189 103.344 56.3125V54.125H106.625C107.229 54.125 107.719 54.615 107.719 55.2188V60.6875H44.2812V55.2188C44.2812 54.615 44.7713 54.125 45.375 54.125ZM106.625 102.25H45.375C44.7713 102.25 44.2812 101.76 44.2812 101.156V62.875H107.719V101.156C107.719 101.76 107.229 102.25 106.625 102.25Z" fill="#FDFDFD"/>
<path d="M96.7812 93.5H75.8862C79.8883 90.9811 82.5625 86.5361 82.5625 81.4688C82.5625 78.2105 81.4491 75.2136 79.5984 72.8128C80.5259 69.5688 83.5261 67.25 86.9375 67.25C90.7864 67.25 93.9725 70.1091 94.5062 73.8125H90.2188L95.6875 81.1045L101.156 73.8125H96.7167C96.1709 68.8983 91.9961 65.0625 86.9375 65.0625C82.9923 65.0625 79.4562 67.4677 77.9152 70.9852C75.3864 68.6741 72.0319 67.25 68.3438 67.25C61.3416 67.25 55.3697 72.4606 54.3055 79.2812H49.75L55.2188 86.5733L60.6875 79.2812H56.5138C57.5517 73.6747 62.5327 69.4375 68.3438 69.4375C74.9773 69.4375 80.375 74.8352 80.375 81.4688C80.375 88.1023 74.9773 93.5 68.3438 93.5H55.2188V95.6875H96.7812V101.012L106.41 94.5938L96.7812 88.1756V93.5ZM95.6875 77.458L94.5938 76H96.7812L95.6875 77.458ZM55.2188 82.9267L54.125 81.4688H56.3125L55.2188 82.9267ZM98.9688 92.2619L102.465 94.5938L98.9688 96.9256V92.2619Z" fill="#FDFDFD"/>
<path d="M46.4688 93.5H48.6562V95.6875H46.4688V93.5Z" fill="#FDFDFD"/>
<path d="M50.8438 93.5H53.0312V95.6875H50.8438V93.5Z" fill="#FDFDFD"/>
<path d="M46.4688 65.0625H48.6562V67.25H46.4688V65.0625Z" fill="#FDFDFD"/>
<path d="M46.4688 69.4375H48.6562V71.625H46.4688V69.4375Z" fill="#FDFDFD"/>
<path d="M46.4688 73.8125H48.6562V76H46.4688V73.8125Z" fill="#FDFDFD"/>
</svg>
